<svg xmlns="http://www.w3.org/2000/svg" width="125" height="35" fill="none" viewBox="0 0 125 35">
  <path fill="#fff" d="M43.448 23.954V11.083h2.304v10.664h5.725v2.207h-8.029Zm10.662 0V11.083h8.117v2.17h-5.849v8.531h5.92v2.17H54.11Zm1.063-5.516v-2.133h6.15v2.133h-6.15Zm8.631 5.516 4.839-12.871h2.162l4.803 12.871h-2.392l-2.659-7.318c-.06-.147-.142-.38-.248-.699a46.201 46.201 0 0 0-.32-1.03 92.86 92.86 0 0 1-.318-1.048c-.095-.33-.166-.57-.213-.717l.443-.018a84.004 84.004 0 0 1-.55 1.784c-.105.33-.212.649-.318.955-.095.307-.183.583-.266.828l-2.658 7.263h-2.304Zm2.198-2.942.798-2.078h5.653l.851 2.078h-7.302Zm11.56 2.942V11.083h2.304v12.871h-2.304Zm1.063-5.277v-2.17h6.398v2.17h-6.398Zm0-5.388v-2.206h7.16v2.206h-7.16Zm9.72 10.665V11.083h5.281c.816 0 1.5.122 2.056.367.567.246.993.613 1.276 1.104.296.478.443 1.06.443 1.746 0 .711-.183 1.312-.55 1.802-.365.49-.88.828-1.541 1.012l-.018-.368a3.63 3.63 0 0 1 1.454.662c.413.306.732.693.957 1.159.236.453.354.974.354 1.562 0 .626-.1 1.177-.301 1.655a2.956 2.956 0 0 1-.85 1.196 4.018 4.018 0 0 1-1.348.735 5.96 5.96 0 0 1-1.755.239h-5.458Zm2.25-2.151h3.102c.437 0 .804-.068 1.099-.203.307-.134.538-.33.691-.588.166-.27.248-.588.248-.956 0-.343-.088-.638-.266-.883a1.49 1.49 0 0 0-.726-.551c-.32-.135-.697-.203-1.134-.203h-3.013v3.384Zm0-5.443h2.819c.342 0 .638-.067.886-.202.26-.135.46-.319.602-.552.142-.233.213-.502.213-.809 0-.49-.16-.87-.478-1.14-.32-.282-.786-.423-1.4-.423h-2.641v3.126Zm15.304 7.778a6.075 6.075 0 0 1-4.448-1.876 6.438 6.438 0 0 1-1.294-2.114c-.307-.81-.46-1.692-.46-2.648 0-.956.153-1.839.46-2.648a6.23 6.23 0 0 1 1.294-2.096 6.016 6.016 0 0 1 1.985-1.398 6.073 6.073 0 0 1 2.463-.496c.898 0 1.725.165 2.481.496a5.838 5.838 0 0 1 1.968 1.398 6.47 6.47 0 0 1 1.294 2.115c.307.796.46 1.673.46 2.629a7.35 7.35 0 0 1-.46 2.63 6.471 6.471 0 0 1-1.294 2.114 5.838 5.838 0 0 1-1.968 1.398 6.12 6.12 0 0 1-2.481.496Zm0-2.28c.567 0 1.081-.104 1.542-.313.473-.22.88-.527 1.223-.92.343-.404.609-.87.798-1.397.2-.527.301-1.103.301-1.728s-.101-1.201-.301-1.728a4.25 4.25 0 0 0-.798-1.38 3.366 3.366 0 0 0-1.223-.919 3.527 3.527 0 0 0-1.542-.33c-.555 0-1.069.11-1.542.33-.472.208-.88.509-1.223.901a4.266 4.266 0 0 0-.797 1.38 5.144 5.144 0 0 0-.284 1.746c0 .625.095 1.207.284 1.747.189.527.455.987.797 1.379.343.392.751.699 1.223.92.473.208.987.312 1.542.312Zm15.54 2.096-3.846-5.774-4.927-7.097h2.871l3.758 5.7 5.015 7.171h-2.871Zm-8.861 0 4.732-7.006 1.63 1.453-3.669 5.553h-2.693Zm7-5.976-1.613-1.397 3.474-5.498h2.694l-4.555 6.895Z"/>
  <path fill="#52B149" d="M.22 33.172c.945-1.226 2.224-2.27 3.309-3.395a.3.3 0 0 0 .084-.208c-.003-5.279 0-10.551.01-15.817C3.635 7.38 7.555 1.841 13.767.353c.96-.23 2.386-.345 4.281-.346A5509.39 5509.39 0 0 1 33.55.004c.965.003 1.443.42 1.446 1.379.008 5.536.007 11.072-.003 16.61-.012 6.362-4.339 11.796-10.536 13.085-.979.204-2.574.305-4.787.303-4.73-.003-9.458-.003-14.185 0a.3.3 0 0 0-.214.085c-.878.846-2.636 3.019-3.639 3.448-1 .429-2.111-.836-1.412-1.742ZM27.167 6.016a.208.208 0 0 0 .152-.066l3.418-3.443a.075.075 0 0 0-.053-.128c-4.195-.036-8.402-.03-12.622.014-4.163.044-7.292 1.052-9.892 4.444a.066.066 0 0 0 .038.1.065.065 0 0 0 .041-.003 8.956 8.956 0 0 1 4.081-.964c4.892.008 9.838.023 14.837.046Zm5.373-1.742a.054.054 0 0 0-.032-.052.053.053 0 0 0-.059.013l-3.365 3.39a.336.336 0 0 0-.098.242c.003 5.004 0 10.01-.01 15.017-.002 1.292-.314 2.588-.938 3.889-.064.134-.037.157.082.07 3.3-2.433 4.56-5.885 4.495-9.941-.069-4.14-.094-8.35-.075-12.629ZM12.358 20.912a30.354 30.354 0 0 0 2.068-2.055.303.303 0 0 0 .08-.21c-.017-.902-.226-4.253.219-4.873.41-.58 1.394-.628 1.842-.131.48.528.337 1.832.337 2.549 0 .128.044.146.134.056l2.189-2.205a.27.27 0 0 0 .082-.204c-.012-.748-.12-1.856.23-2.428.34-.554 1.133-.692 1.68-.327.59.395.584 1.294.543 2.06-.007.094.037.138.132.133.736-.034 1.216-.017 1.44.051.787.235 1.02 1.236.544 1.887-.452.62-1.707.517-2.686.451a.294.294 0 0 0-.231.087l-2.16 2.16a.114.114 0 0 0-.022.13.113.113 0 0 0 .116.063c.777-.104 1.936-.194 2.494.385.849.885-.005 2.038-1.08 2.04-.66.002-1.964-.022-3.91-.072a.315.315 0 0 0-.236.094l-2.237 2.251a.088.088 0 0 0-.02.098.092.092 0 0 0 .085.057c1.456-.005 2.923-.002 4.401.01 1.203.01 1.306 2.517-.642 2.43-2.044-.09-4.117-.027-6.186-.102a.295.295 0 0 0-.221.087l-3.47 3.49c-.082.082-.066.124.05.126 3.928.043 7.853.037 11.775-.02 3.038-.046 5.537-1.131 6.52-4.247.214-.68.318-1.67.313-2.968a2017.6 2017.6 0 0 1-.005-13.2c0-.096-.047-.143-.142-.143h-13.11c-1.334 0-2.343.111-3.028.334-2.91.945-4.17 3.35-4.204 6.321a588.857 588.857 0 0 0-.007 12.02c0 .117.04.134.123.051l3.386-3.409a.29.29 0 0 0 .084-.208c-.008-2.145-.005-4.289.01-6.43.01-1.837 2.407-1.823 2.438-.245a97.56 97.56 0 0 1-.007 4.191.088.088 0 0 0 .049.082.086.086 0 0 0 .093-.011.228.228 0 0 0 .058-.08.329.329 0 0 1 .089-.126Z"/>
</svg>
