<svg xmlns="http://www.w3.org/2000/svg" width="35" height="35" fill="none" viewBox="0 0 35 35">
    <path class="leaf" fill="#52B149" d="M.22 33.172c.945-1.226 2.224-2.27 3.309-3.395a.3.3 0 0 0 .084-.208c-.003-5.279 0-10.551.01-15.817C3.635 7.38 7.555 1.841 13.767.353c.96-.23 2.386-.345 4.281-.346A5509.39 5509.39 0 0 1 33.55.004c.965.003 1.443.42 1.446 1.379.008 5.536.007 11.072-.003 16.61-.012 6.362-4.339 11.796-10.536 13.085-.979.204-2.574.305-4.787.303-4.73-.003-9.458-.003-14.185 0a.3.3 0 0 0-.214.085c-.878.846-2.636 3.019-3.639 3.448-1 .429-2.111-.836-1.412-1.742ZM27.167 6.016a.208.208 0 0 0 .152-.066l3.418-3.443a.075.075 0 0 0-.053-.128c-4.195-.036-8.402-.03-12.622.014-4.163.044-7.292 1.052-9.892 4.444a.066.066 0 0 0 .038.1.065.065 0 0 0 .041-.003 8.956 8.956 0 0 1 4.081-.964c4.892.008 9.838.023 14.837.046Zm5.373-1.742a.054.054 0 0 0-.032-.052.053.053 0 0 0-.059.013l-3.365 3.39a.336.336 0 0 0-.098.242c.003 5.004 0 10.01-.01 15.017-.002 1.292-.314 2.588-.938 3.889-.064.134-.037.157.082.07 3.3-2.433 4.56-5.885 4.495-9.941-.069-4.14-.094-8.35-.075-12.629ZM12.358 20.912a30.354 30.354 0 0 0 2.068-2.055.303.303 0 0 0 .08-.21c-.017-.902-.226-4.253.219-4.873.41-.58 1.394-.628 1.842-.131.48.528.337 1.832.337 2.549 0 .128.044.146.134.056l2.189-2.205a.27.27 0 0 0 .082-.204c-.012-.748-.12-1.856.23-2.428.34-.554 1.133-.692 1.68-.327.59.395.584 1.294.543 2.06-.007.094.037.138.132.133.736-.034 1.216-.017 1.44.051.787.235 1.02 1.236.544 1.887-.452.62-1.707.517-2.686.451a.294.294 0 0 0-.231.087l-2.16 2.16a.114.114 0 0 0-.022.13.113.113 0 0 0 .116.063c.777-.104 1.936-.194 2.494.385.849.885-.005 2.038-1.08 2.04-.66.002-1.964-.022-3.91-.072a.315.315 0 0 0-.236.094l-2.237 2.251a.088.088 0 0 0-.02.098.092.092 0 0 0 .085.057c1.456-.005 2.923-.002 4.401.01 1.203.01 1.306 2.517-.642 2.43-2.044-.09-4.117-.027-6.186-.102a.295.295 0 0 0-.221.087l-3.47 3.49c-.082.082-.066.124.05.126 3.928.043 7.853.037 11.775-.02 3.038-.046 5.537-1.131 6.52-4.247.214-.68.318-1.67.313-2.968a2017.6 2017.6 0 0 1-.005-13.2c0-.096-.047-.143-.142-.143h-13.11c-1.334 0-2.343.111-3.028.334-2.91.945-4.17 3.35-4.204 6.321a588.857 588.857 0 0 0-.007 12.02c0 .117.04.134.123.051l3.386-3.409a.29.29 0 0 0 .084-.208c-.008-2.145-.005-4.289.01-6.43.01-1.837 2.407-1.823 2.438-.245a97.56 97.56 0 0 1-.007 4.191.088.088 0 0 0 .049.082.086.086 0 0 0 .093-.011.228.228 0 0 0 .058-.08.329.329 0 0 1 .089-.126Z"/>
</svg>